<?xml version="1.0" encoding="UTF-8" standalone="no"?>
<!-- Created with Inkscape (http://www.inkscape.org/) -->

<svg
   width="31.395433mm"
   height="29.838751mm"
   viewBox="0 0 31.395432 29.83875"
   version="1.1"
   id="svg1"
   xml:space="preserve"
   inkscape:version="1.3.1 (91b66b0783, 2023-11-16)"
   sodipodi:docname="icon.svg"
   xmlns:inkscape="http://www.inkscape.org/namespaces/inkscape"
   xmlns:sodipodi="http://sodipodi.sourceforge.net/DTD/sodipodi-0.dtd"
   xmlns="http://www.w3.org/2000/svg"
   xmlns:svg="http://www.w3.org/2000/svg"><sodipodi:namedview
     id="namedview1"
     pagecolor="#ffffff"
     bordercolor="#000000"
     borderopacity="0.25"
     inkscape:showpageshadow="2"
     inkscape:pageopacity="0.0"
     inkscape:pagecheckerboard="0"
     inkscape:deskcolor="#d1d1d1"
     inkscape:document-units="mm"
     inkscape:export-bgcolor="#ffffff00"
     inkscape:zoom="0.9789084"
     inkscape:cx="76.615953"
     inkscape:cy="168.04432"
     inkscape:window-width="1920"
     inkscape:window-height="991"
     inkscape:window-x="-9"
     inkscape:window-y="-9"
     inkscape:window-maximized="1"
     inkscape:current-layer="layer1" /><defs
     id="defs1"><linearGradient
       id="swatch23"
       inkscape:swatch="solid"><stop
         style="stop-color:#d03f3d;stop-opacity:1;"
         offset="0"
         id="stop23" /></linearGradient></defs><g
     inkscape:label="Calque 1"
     inkscape:groupmode="layer"
     id="layer1"
     transform="translate(-28.798079,-32.987026)"><path
       style="fill:#000000;stroke-width:0.47978"
       d="M 26.23278,78.295471 C 24.480658,77.813801 22.683318,76.335398 21.953301,74.77539 21.150336,73.059492 21.183684,74.082572 21.224716,52.422737 l 0.03733,-19.699372 0.287956,-0.952064 c 0.158385,-0.523637 0.574774,-1.534207 0.925331,-2.245715 0.628604,-1.275843 0.634556,-1.2991 0.432542,-1.689755 -0.386195,-0.746817 0.212177,-1.64998 1.093152,-1.64998 0.172731,0 0.565345,0.284847 1.021839,0.74134 0.934127,0.934126 0.96204,1.232555 0.217799,2.328497 -0.287946,0.424021 -0.711296,1.17778 -0.940777,1.675016 -0.860204,1.863893 -0.820798,0.802394 -0.819129,22.066307 0.0016,20.765935 -0.02635,19.89222 0.674849,21.07951 0.670695,1.135657 1.878645,1.919097 3.295575,2.137412 0.483138,0.07443 7.988944,0.107739 19.385408,0.08601 l 18.597014,-0.03545 0.723777,-0.29244 c 1.014546,-0.409929 1.907567,-1.254709 2.414158,-2.283744 l 0.416436,-0.845915 V 45.22983 17.61726 L 68.650249,16.896846 C 67.972395,15.450847 66.770136,14.519351 65.242887,14.25685 64.66479,14.157499 60.905605,14.126264 52.675915,14.152457 l -11.742142,0.03737 -0.694048,0.283911 c -0.605973,0.247883 -1.242813,0.831828 -5.018477,4.601651 -4.263832,4.257237 -4.331668,4.317738 -4.841254,4.317738 -0.4611,0 -0.587245,-0.07445 -1.169948,-0.690583 -0.680188,-0.719199 -0.782171,-1.045319 -0.512185,-1.637875 0.229401,-0.503479 0.989629,-0.742391 1.497472,-0.470602 0.188795,0.101047 0.846565,-0.503296 4.054171,-3.724816 4.022576,-4.040032 4.378771,-4.327546 5.872498,-4.740151 0.750211,-0.207223 1.745545,-0.224231 13.125151,-0.224231 11.568452,0 12.359456,0.01406 13.075031,0.23223 2.598835,0.792387 4.443007,2.839339 4.883192,5.420133 0.100065,0.586607 0.129761,8.666138 0.103858,28.241171 l -0.03632,27.419487 -0.304555,0.761651 c -0.828308,2.071461 -2.471353,3.650007 -4.428249,4.254436 -0.799551,0.246952 -1.205911,0.251778 -20.256417,0.240659 -15.69675,-0.0091 -19.558054,-0.04366 -20.050924,-0.179157 z M 20.369158,27.095297 c -0.279726,-0.13188 -1.059434,-0.810042 -1.736121,-1.51 -1.394153,-1.442101 -1.618487,-1.910789 -1.368259,-2.858618 0.122978,-0.465781 0.613677,-1.012699 3.591007,-4.002349 3.778876,-3.794514 4.119316,-4.053316 5.132115,-3.901437 0.545257,0.08177 0.713195,0.207112 2.016672,1.505252 1.606084,1.5995 1.827953,2.030728 1.561308,3.034569 -0.123401,0.464551 -0.613476,1.012076 -3.527535,3.941034 -1.861327,1.870841 -3.558239,3.510616 -3.770917,3.643946 -0.595534,0.373344 -1.302832,0.428343 -1.89827,0.147609 z m 3.860545,-5.277752 2.969925,-2.971942 -0.388578,-0.48723 c -0.213716,-0.267976 -0.55097,-0.640544 -0.749452,-0.827931 l -0.360872,-0.340701 -3.014875,2.977065 c -1.65818,1.637384 -3.014875,3.011109 -3.014875,3.052718 0,0.154369 1.299925,1.569963 1.441673,1.569963 0.08092,0 1.483594,-1.337374 3.117054,-2.971942 z m 14.835275,4.342496 c -0.747058,-0.433059 -1.104332,-1.566276 -0.720134,-2.284157 0.07717,-0.144217 1.111626,-1.431318 2.298769,-2.86024 1.692235,-2.036885 2.271986,-2.649598 2.684133,-2.836747 0.498674,-0.226435 0.992546,-0.238849 9.608379,-0.241493 l 9.082683,-0.0027 0.515975,0.334563 c 0.932498,0.604643 0.988906,0.799946 1.038506,3.595608 0.04768,2.687246 -0.02472,3.163978 -0.580784,3.824834 -0.658563,0.782658 -0.126793,0.750385 -12.311852,0.747197 l -11.143242,-0.0029 z m 22.242995,-3.972867 v -1.967601 l -8.53685,0.0071 -8.536856,0.0071 -0.634711,0.775704 c -0.34909,0.426635 -1.077996,1.308811 -1.61979,1.96039 l -0.985078,1.184689 h 10.156643 10.156642 z"
       id="path1"
       sodipodi:nodetypes="csscssssssssssscsscccssscsssssssssssccsssccssssssssssscsscssssssssscscsscsccccsscccc" /><path
       style="fill:#000000;stroke-width:0.264726"
       d="m 44.63938,66.037152 -0.0016,-2.714126 -1.288553,-0.661114 -1.288553,-0.661124 -0.284841,0.128444 -0.284846,0.128444 -0.01852,1.968527 -0.01852,1.968531 -0.928055,0.01963 -0.928056,0.01963 v -2.752582 -2.752494 l -1.278593,-0.659597 -1.278594,-0.659598 -0.33237,0.194797 -0.332367,0.194774 v 1.956553 1.956548 l -0.928058,-0.01963 -0.928054,-0.01963 -0.01517,-2.795914 -0.01517,-2.795909 -1.199229,-0.614844 -1.199232,-0.614855 -0.37906,0.185917 -0.379062,0.185917 v 1.946584 1.946582 h -0.94638 -0.946379 l 0.01829,-2.746934 0.0183,-2.746935 0.280167,-0.157046 0.280167,-0.157024 0.03503,-1.40812 0.03503,-1.408103 6.618958,-3.332852 6.618961,-3.332853 0.36539,0.185471 c 0.200977,0.102005 0.400822,0.185471 0.444126,0.185471 0.04331,0 0.651088,-0.278037 1.350633,-0.617861 l 1.271904,-0.617858 0.665398,0.05094 c 0.365971,0.02807 0.736316,0.0539 0.822994,0.05752 l 0.157604,0.0067 v 1.681771 1.681763 l 0.370859,0.181878 0.37086,0.181879 1.327656,-0.659906 1.327657,-0.659909 0.821789,0.06785 0.821793,0.06782 0.01874,1.722712 0.01874,1.722712 0.31536,0.166618 0.31536,0.166618 1.362233,-0.68183 1.362232,-0.681833 0.738853,0.04697 c 0.406371,0.02586 0.794018,0.0628 0.861428,0.08217 0.112514,0.03228 0.122576,0.178331 0.122576,1.779054 0,1.67218 0.0058,1.746948 0.140091,1.818834 0.11084,0.05932 0.14009,0.05326 0.14009,-0.02903 0,-0.0651 0.517352,-0.362782 1.383327,-0.795957 l 1.38333,-0.691959 0.630374,0.05198 c 0.346705,0.02865 0.717057,0.05468 0.822992,0.05805 l 0.19261,0.006 v 1.851029 1.851024 l 0.175096,0.137748 0.175096,0.137747 -1.72e-4,1.635905 -1.87e-4,1.6359 -6.652836,3.327904 -6.652837,3.327897 -1.637157,-0.841412 -1.637156,-0.841411 -0.25494,0.121439 -0.254938,0.121438 v 1.962304 1.962309 h -0.945567 -0.945563 z m 1.278591,0.210125 0.01874,-1.873632 1.243137,-0.63037 1.243139,-0.630379 1.07e-4,-0.332701 1.05e-4,-0.332693 h -0.431185 c -0.406438,0 -0.496879,0.03469 -1.57594,0.604273 l -1.144761,0.604275 v 2.23242 2.232423 h 0.314044 0.314046 z m -5.113077,-2.556538 0.01874,-1.838599 1.252251,-0.63643 1.252253,-0.636423 0.0085,-0.326703 0.0085,-0.326703 -0.455272,9.61e-4 c -0.437019,9.6e-4 -0.4988,0.0247 -1.540925,0.588533 l -1.085648,0.587453 -0.01852,2.213197 -0.01852,2.213195 h 0.279988 0.279989 z m 21.540985,-5.745067 -0.01941,-0.901724 -9.315572,-4.803799 c -5.123555,-2.642091 -9.398137,-4.835688 -9.49906,-4.874661 -0.164677,-0.06361 -0.798606,0.237382 -6.182278,2.935334 -4.924475,2.46783 -5.995452,3.029337 -5.980193,3.135363 0.01205,0.08317 0.230592,0.238731 0.613949,0.436881 0.574843,0.297132 0.617329,0.307763 1.233115,0.308614 l 0.637762,9.59e-4 0.04464,0.472781 c 0.02456,0.260036 0.04489,0.667659 0.04516,0.905828 5.29e-4,0.371766 -0.01941,0.439339 -0.139577,0.477511 -0.07704,0.02448 -0.14009,0.07722 -0.14009,0.117266 0,0.04007 0.0489,0.05404 0.108699,0.03108 0.05979,-0.02298 0.0915,-0.01383 0.07046,0.0203 -0.04922,0.07963 0.160282,0.161553 0.258247,0.101002 0.04734,-0.02927 0.05361,-0.01227 0.01718,0.04667 -0.04197,0.06794 -0.02514,0.08041 0.06285,0.04667 0.06945,-0.02664 0.102653,-0.01762 0.07862,0.0212 -0.02287,0.03699 0.344819,0.26093 0.817061,0.497653 0.721996,0.361932 0.886852,0.419959 1.03602,0.364668 0.09757,-0.03617 0.168737,-0.105219 0.158162,-0.153477 -0.01049,-0.04826 0.01116,-0.06894 0.04821,-0.04601 0.06809,0.04208 0.990312,-0.379486 0.982329,-0.449056 -0.0025,-0.02053 -0.617546,-0.336926 -1.367065,-0.702899 -0.749519,-0.36597 -1.474758,-0.722453 -1.611642,-0.7922 l -0.24888,-0.126792 0.01673,0.459499 c 0.0091,0.25272 -0.0045,0.48051 -0.03003,0.506192 -0.02568,0.02573 -0.0467,-0.210815 -0.0467,-0.52558 v -0.572261 l 1.768559,0.892728 1.768558,0.892729 0.70042,0.03561 0.70042,0.03561 0.01963,0.895535 0.01963,0.895522 -0.218536,0.0919 -0.218535,0.0919 1.201605,0.611763 c 1.058595,0.538958 1.510382,0.691341 1.368344,0.461517 -0.02577,-0.0417 0.0054,-0.05118 0.07708,-0.02361 0.07807,0.02994 0.103478,0.01919 0.07253,-0.03099 -0.02622,-0.04246 -0.01071,-0.09991 0.03434,-0.127797 0.05123,-0.03166 0.06325,-0.0203 0.03204,0.03023 -0.07461,0.120702 -0.0087,0.101582 0.453257,-0.131612 0.231511,-0.116864 0.40492,-0.238394 0.385354,-0.270049 -0.01963,-0.03166 0.05015,-0.04221 0.154927,-0.02356 0.104772,0.01874 -0.565957,-0.344079 -1.490512,-0.80618 l -1.681006,-0.84018 -0.03991,0.498384 -0.03991,0.498376 -0.01272,-0.580889 -0.01272,-0.580875 1.78809,0.913584 1.788087,0.913578 h 0.698399 0.6984 v 0.349934 0.349933 l 1.733537,0.872037 c 0.953448,0.479613 1.709645,0.873724 1.680447,0.875797 -0.0292,0.0019 -0.809293,-0.374585 -1.73354,-0.837016 l -1.680437,-0.840929 v 0.546548 0.546543 l -0.259675,0.09391 -0.259672,0.09391 1.033419,0.517631 c 0.568382,0.284692 1.068331,0.49605 1.111001,0.469683 0.04562,-0.0282 0.0579,-0.01606 0.02978,0.02941 -0.02628,0.0425 0.01763,0.112357 0.09763,0.155172 0.122799,0.06571 0.259987,0.01718 0.881357,-0.311674 l 0.73593,-0.389502 h 0.826353 0.826354 l 0.04529,0.535886 c 0.0249,0.294731 0.04529,0.703835 0.04529,0.909118 0,0.368152 -0.004,0.375296 -0.29547,0.523978 l -0.295472,0.150755 0.753881,0.378187 c 0.414634,0.208005 0.788858,0.356578 0.831607,0.330157 0.04547,-0.02816 0.0581,-0.01629 0.03041,0.02849 -0.02601,0.04208 0.0049,0.105843 0.06896,0.14163 0.08848,0.04953 1.554332,-0.647637 6.132077,-2.916417 l 6.015792,-2.981482 z m -12.101674,5.948322 v -0.79484 l -0.29541,-0.133218 c -0.162468,-0.07327 -0.298682,-0.117445 -0.302683,-0.09819 -0.004,0.01919 -0.06446,-0.02209 -0.134356,-0.09205 -0.175163,-0.175163 -0.235844,-0.08302 -0.268146,0.407247 -0.02454,0.372492 -0.02782,0.35905 -0.02876,-0.11827 l -0.0011,-0.53852 0.550223,0.276648 0.550222,0.276651 v 0.804687 c 0,0.442595 -0.01584,0.804703 -0.03503,0.804703 -0.01919,0 -0.03503,-0.357679 -0.03503,-0.794841 z m -0.647889,0.44014 c -0.221502,-0.114343 -0.40274,-0.223588 -0.40274,-0.242783 0,-0.01919 0.189107,0.06055 0.42025,0.177238 0.231139,0.116664 0.420253,0.22744 0.420253,0.246152 0,0.04672 0.01294,0.05203 -0.437763,-0.180607 z M 48.703282,63.89085 c 0,-0.01517 0.04891,-0.0463 0.108699,-0.06925 0.06234,-0.02389 0.09045,-0.01227 0.06591,0.02749 -0.04114,0.06655 -0.174605,0.09844 -0.174605,0.0417 z M 45.95297,62.368769 c 0.04752,-0.04788 0.104036,-0.06939 0.125588,-0.04783 0.02164,0.02164 -0.0174,0.06073 -0.08639,0.08704 -0.09982,0.03804 -0.107873,0.02994 -0.0392,-0.0392 z M 45.043591,61.98762 c -0.358081,-0.186407 -0.390358,-0.217196 -0.227634,-0.217196 0.05779,0 0.105062,0.02244 0.105062,0.04984 0,0.02744 0.09522,0.08931 0.211642,0.137525 0.116396,0.04819 0.228573,0.115079 0.249282,0.14859 0.05089,0.08235 0.04219,0.07932 -0.338339,-0.118783 z m 1.925545,-0.137055 c 0.02856,-0.03057 0.01272,-0.105754 -0.03503,-0.167087 -0.07644,-0.09801 -0.07249,-0.100176 0.03255,-0.01785 0.06573,0.05145 0.152406,0.07325 0.192611,0.04842 0.0402,-0.02485 0.07311,-0.02869 0.07311,-0.0085 0,0.02008 -0.07093,0.07358 -0.157604,0.118694 -0.08668,0.04509 -0.134222,0.05698 -0.105664,0.02639 z m -6.478268,-2.209512 c -0.144463,-0.07626 -0.262657,-0.154302 -0.262657,-0.173422 0,-0.01919 0.126078,0.0295 0.280166,0.108163 0.154102,0.0786 0.28017,0.15805 0.28017,0.176524 0,0.04583 -5.27e-4,0.04563 -0.297679,-0.111265 z M 38.858272,58.77253 c -0.07479,-0.05656 -0.100422,-0.103835 -0.05698,-0.105062 0.04344,-0.0014 0.118203,0.04505 0.166171,0.102853 0.110729,0.133397 0.06548,0.134334 -0.109189,0.0019 z m -3.151886,-1.617059 c -0.133776,-0.107182 -0.133732,-0.107895 0.004,-0.04447 0.07704,0.03541 0.187367,0.08197 0.245147,0.103389 0.09076,0.03369 0.0902,0.03974 -0.004,0.04453 -0.06006,0.0029 -0.170366,-0.04346 -0.245145,-0.103411 z m 0.669521,-0.1313 c 0,-0.01919 0.06303,-0.06876 0.14009,-0.109992 0.07704,-0.04121 0.14009,-0.05921 0.14009,-0.03996 0,0.01919 -0.06303,0.06876 -0.14009,0.109993 -0.07704,0.04121 -0.14009,0.05921 -0.14009,0.03996 z M 34.74743,56.30746 c 0.04815,-0.01941 0.126949,-0.01941 0.175118,0 0.04815,0.01941 0.0087,0.03536 -0.08755,0.03536 -0.09632,0 -0.135717,-0.01584 -0.08755,-0.03536 z m 0.9981,4.84814 v -1.852234 l 1.260754,-0.636217 1.260753,-0.636229 v -0.348244 -0.348245 h -0.392266 c -0.359036,0 -0.489461,0.05192 -1.539485,0.612867 l -1.147221,0.612872 -0.0013,2.223828 -0.0013,2.223824 h 0.280167 0.280169 z m -5.043019,-2.525021 v -1.855745 l 1.260756,-0.631113 1.260754,-0.631118 v -0.349837 -0.349844 l -0.437762,0.0058 c -0.412594,0.0054 -0.502199,0.04065 -1.558433,0.612979 l -1.12067,0.607264 -0.01852,2.223717 -0.01852,2.223719 h 0.316172 0.316175 z m 31.93911,-4.263877 v -1.356771 l -0.415262,-0.04697 c -0.414634,-0.04692 -0.416937,-0.04612 -1.540916,0.516681 -0.619118,0.310005 -1.125667,0.595663 -1.125667,0.634783 0,0.03911 0.07188,0.10388 0.159723,0.143905 0.135093,0.06156 0.315865,-0.0033 1.17234,-0.421752 0.556941,-0.271987 1.052401,-0.494525 1.10103,-0.494525 0.06736,0 0.08842,0.25566 0.08842,1.07294 v 1.072943 l 0.227632,0.113294 c 0.125208,0.06231 0.251281,0.115303 0.280173,0.11778 0.02889,0.0019 0.05257,-0.606065 0.05257,-1.352287 z m -1.260749,0.375001 v -0.351385 l -0.364875,0.18489 -0.364872,0.184891 0.312341,0.163338 c 0.171794,0.08982 0.335976,0.164766 0.364864,0.166506 0.02889,0.0019 0.05256,-0.154949 0.05256,-0.348222 z m -29.490501,-0.445595 0.38238,-0.200821 -0.312335,-0.163338 c -0.171794,-0.08982 -0.334032,-0.164766 -0.360544,-0.166506 -0.02651,-0.0019 -0.04226,0.138684 -0.03503,0.312029 0.01852,0.441807 -0.07894,0.395394 -0.110283,-0.05257 l -0.02573,-0.367717 -0.01294,0.443601 c -0.0071,0.243983 0.01071,0.432906 0.03958,0.419847 0.02889,-0.01294 0.224601,-0.11412 0.43491,-0.224573 z m -0.207268,-0.0038 c 0,-0.01919 0.06305,-0.06876 0.14009,-0.109993 0.07704,-0.04121 0.14009,-0.05921 0.14009,-0.03996 0,0.01919 -0.06305,0.06874 -0.14009,0.109993 -0.07704,0.04121 -0.14009,0.05921 -0.14009,0.03996 z m 26.195664,-2.27484 v -1.254154 l -0.402743,-0.02744 c -0.383556,-0.0261 -0.453398,-0.0019 -1.466181,0.497937 l -1.06345,0.52535 0.203231,0.123603 0.20323,0.123602 0.930251,-0.452849 c 0.511642,-0.249074 0.953891,-0.452885 0.982788,-0.452909 0.02889,-2.9e-5 0.05257,0.435491 0.05257,0.967818 v 0.967883 l 0.227631,0.113295 c 0.125209,0.06231 0.251277,0.115302 0.280169,0.117779 0.02889,0.0019 0.0525,-0.559944 0.0525,-1.249792 z m -1.190711,0.425442 c 0,-0.270252 -0.05352,-0.303984 -0.289049,-0.182191 -0.242372,0.125343 -0.252586,0.194395 -0.04366,0.295153 0.257912,0.124384 0.3327,0.09899 0.3327,-0.11296 z m -3.852301,-2.978481 v -1.215751 l -0.422783,-0.0442 c -0.419699,-0.04391 -0.430297,-0.04045 -1.45337,0.472571 l -1.030588,0.516752 0.249947,0.11972 0.249947,0.119721 0.852136,-0.427165 c 0.468674,-0.234938 0.884141,-0.427158 0.923257,-0.427158 0.04447,0 0.07113,0.340476 0.07113,0.908868 v 0.908873 l 0.262655,0.138662 c 0.144463,0.07626 0.270535,0.140046 0.280169,0.141764 0.0096,0.0014 0.0174,-0.543991 0.0174,-1.212663 z m -1.260754,0.376753 c 0,-0.197117 -0.0096,-0.204212 -0.175118,-0.128846 -0.09632,0.04391 -0.175096,0.101426 -0.175096,0.127886 0,0.03724 0.224829,0.175632 0.3327,0.204837 0.0096,0.0029 0.0174,-0.08913 0.0174,-0.203899 z m -3.782262,-2.93641 v -1.183834 l -0.409865,-0.04759 c -0.405764,-0.04708 -0.419954,-0.0425 -1.418349,0.458002 l -1.008486,0.50557 0.227805,0.108252 c 0.224439,0.106646 0.239965,0.102363 1.05063,-0.290436 0.452554,-0.219272 0.845494,-0.398382 0.873199,-0.39802 0.02771,2.68e-4 0.05921,0.385825 0.07003,0.85658 l 0.01963,0.855925 0.280167,0.158541 c 0.154101,0.08719 0.288047,0.159054 0.297679,0.159679 0.0096,4.71e-4 0.0174,-0.531568 0.0174,-1.182679 z m -1.284118,0.226583 c -0.01919,-0.01919 -0.105709,0.0033 -0.192521,0.0498 l -0.157849,0.08447 0.169339,0.09141 c 0.152183,0.08215 0.171705,0.07711 0.192521,-0.04978 0.01272,-0.07766 0.0076,-0.156801 -0.0116,-0.175877 z"
       id="path2" /><g
       id="g10"
       transform="matrix(0.19547579,-0.17211868,0.16377108,0.2054394,29.513657,30.154062)"><path
         style="fill:#f8e6ad"
         d="m 54.203205,125.7483 c 24.483882,-0.0372 64.548415,-0.0372 89.032295,0 24.48388,0.0372 4.45162,0.0677 -44.516147,0.0677 -48.967763,0 -69.000029,-0.0305 -44.516148,-0.0677 z M 8.7114063,125.50141 c 0.1909961,-0.0764 0.4191992,-0.067 0.507118,0.0209 0.087919,0.0879 -0.068351,0.15045 -0.3472656,0.13896 -0.3082245,-0.0127 -0.3709192,-0.0754 -0.1598524,-0.15985 z m -1.0607027,-0.37207 c -0.052842,-0.15853 -0.7473731,-0.46638 -1.5434029,-0.68411 -2.6419458,-0.72264 -3.0215647,-0.83201 -4.8869104,-1.40803 -3.9300703,-1.2136 -4.5403468,-1.38881 -5.8852335,-1.68965 l -1.3873166,-0.31032 0.6325928,-1.18271 c 0.5702314,-1.06611 0.5964966,-1.25251 0.2664333,-1.89078 -0.2013877,-0.38944 -0.5761371,-0.76336 -0.8327763,-0.83093 -0.283629,-0.0747 -0.2072202,-0.1158 0.1948416,-0.10486 0.6162739,0.0168 2.0741757,-0.36038 3.3072919,-0.8556 0.2910416,-0.11688 1.89838546,-0.59737 3.5718751,-1.06775 1.6734897,-0.47039 3.3403648,-0.94797 3.7041669,-1.06129 0.3638021,-0.11332 1.167474,-0.35797 1.7859375,-0.54366 0.6184636,-0.18569 1.1244793,-0.43762 1.1244793,-0.55985 0,-0.12223 0.174857,-0.22223 0.3885711,-0.22223 0.2381483,0 0.3291144,0.15494 0.2349829,0.40024 -0.084473,0.22013 -0.037138,0.54756 0.1051896,0.7276 0.1423277,0.18005 0.5798519,0.91054 0.972276,1.62332 l 0.7134981,1.29595 -1.1300555,1.15144 -1.1300556,1.15145 1.102933,1.12448 1.1029331,1.12447 -1.0495742,1.80841 c -0.5772658,0.99462 -0.9822379,1.91736 -0.8999381,2.05052 0.0823,0.13316 0.033469,0.24212 -0.1085136,0.24212 -0.1419823,0 -0.3013838,-0.12971 -0.3542255,-0.28823 z M 190.52977,124.54103 c 0,-0.0455 0.38696,-0.43249 0.8599,-0.8599 l 0.8599,-0.77711 -0.77711,0.8599 c -0.72437,0.80154 -0.94269,0.98151 -0.94269,0.77711 z M -6.8990111,120.73891 c 0.1909961,-0.0764 0.4191992,-0.067 0.5071181,0.0209 0.087919,0.0879 -0.068351,0.15045 -0.3472657,0.13896 -0.3082245,-0.0127 -0.3709192,-0.0754 -0.1598524,-0.15985 z m -2.6458335,-0.79375 c 0.1909961,-0.0764 0.4191993,-0.067 0.5071181,0.0209 0.087919,0.0879 -0.068351,0.15045 -0.3472656,0.13896 -0.3082246,-0.0127 -0.3709193,-0.0754 -0.1598525,-0.15985 z M 193.24767,119.06757 c 0,-0.65485 0.0516,-0.92274 0.11466,-0.59532 0.0631,0.32743 0.0631,0.86321 0,1.19063 -0.0631,0.32742 -0.11466,0.0595 -0.11466,-0.59531 z m -204.644598,0.34842 c 0.190996,-0.0764 0.419199,-0.067 0.507118,0.0209 0.08792,0.0879 -0.06835,0.15045 -0.347266,0.13896 -0.308224,-0.0127 -0.370919,-0.0754 -0.159852,-0.15985 z m 0.181901,-0.87759 c 0.291042,-0.12507 0.707761,-0.22739 0.926042,-0.22739 0.250158,0 0.201252,0.0841 -0.132292,0.22739 -0.291042,0.12506 -0.70776,0.22739 -0.926042,0.22739 -0.250158,0 -0.201252,-0.0841 0.132292,-0.22739 z m 2.4639325,-0.70991 c 0.1909961,-0.0764 0.4191992,-0.067 0.507118,0.0209 0.087919,0.0879 -0.068351,0.15045 -0.3472656,0.13896 -0.3082245,-0.0127 -0.3709192,-0.0754 -0.1598524,-0.15985 z m 199.9256845,-3.58957 -0.77711,-0.8599 0.8599,0.77711 c 0.47294,0.42741 0.85989,0.81436 0.85989,0.8599 0,0.2044 -0.21831,0.0244 -0.94268,-0.77711 z M 9.2338569,112.40543 c 0.2492603,-0.0989 40.5772651,-0.15916 89.6177881,-0.13389 49.040525,0.0253 79.699115,0.0763 68.130215,0.11347 -52.59051,0.16886 -158.1564965,0.18252 -157.7480031,0.0204 z"
         id="path16" /><path
         style="fill:#fac94c"
         d="m 8.088678,125.13538 c -0.2714793,-0.43926 -0.027811,-0.50018 0.3520401,-0.088 0.1876384,0.2036 0.2244307,0.37019 0.081761,0.37019 -0.14267,0 -0.3378804,-0.12699 -0.4338011,-0.28219 z m 0.8039352,-5.01019 -1.034129,-1.05905 1.1293579,-1.15073 1.1293579,-1.15073 -0.7134981,-1.29595 c -0.3924241,-0.71278 -0.8186823,-1.42969 -0.9472405,-1.59315 -0.3896913,-0.49548 0.026498,-1.08917 0.8837082,-1.26062 0.4454497,-0.0891 36.4590614,-0.16198 80.0302484,-0.16198 h 79.220342 l -0.0768,2.1191 -0.0769,2.1191 -78.988333,-0.003 -78.988337,-0.003 -1.1686612,1.19078 -1.1686613,1.19077 1.034129,1.05905 c 0.568771,0.58247 0.9745975,1.05904 0.9018375,1.05904 -0.072761,0 -0.5976498,-0.47657 -1.1664208,-1.05904 z"
         id="path15" /><path
         style="fill:#fcc224"
         d="m 8.6098252,119.06757 c 0,-0.3427 0.089454,-0.43216 0.2608035,-0.26081 0.1713492,0.17135 0.1713492,0.35026 0,0.52161 -0.1713492,0.17135 -0.2608035,0.0819 -0.2608035,-0.2608 z m 1.6478138,-2.18368 c 0.06774,-0.10961 35.734657,-0.19813 79.259807,-0.1967 43.525154,0.001 79.076734,0.0625 79.003514,0.13572 -0.21738,0.21737 -158.397642,0.27832 -158.263321,0.061 z"
         id="path14" /><path
         style="fill:#fcbd17"
         d="m 49.440705,125.48372 c 21.573465,-0.0373 56.875495,-0.0373 78.448965,0 21.57346,0.0373 3.92245,0.0679 -39.224484,0.0679 -43.146929,0 -60.797946,-0.0305 -39.224481,-0.0679 z m 39.835644,-4.23378 -78.896133,-0.0666 -0.7690162,-0.72717 c -1.002628,-0.94806 -0.9839261,-1.95572 0.05283,-2.84648 l 0.7707222,-0.66219 79.067302,0.005 79.067306,0.005 v 2.09763 c 0,1.15371 -0.0893,2.13444 -0.19844,2.1794 -0.10914,0.045 -35.7017,0.0518 -79.094571,0.0152 z M 8.2318489,119.06757 c 0,-0.14552 0.1190625,-0.26459 0.2645834,-0.26459 0.1455208,0 0.2645833,0.11907 0.2645833,0.26459 0,0.14552 -0.1190625,0.26458 -0.2645833,0.26458 -0.1455209,0 -0.2645834,-0.11906 -0.2645834,-0.26458 z"
         id="path13" /><path
         style="fill:#e8a100"
         d="m 9.2253425,125.32764 c -0.473661,-0.12222 -0.9016984,-0.26194 -0.9511942,-0.31048 -0.049496,-0.0485 0.4107877,-0.9312 1.022852,-1.96145 l 1.1128437,-1.8732 79.060366,0.003 79.06036,0.003 0.0855,2.18108 0.0855,2.18108 H 89.394096 c -43.619153,0 -79.6950924,-0.1 -80.1687535,-0.22222 z"
         id="path12" /><path
         style="fill:#b8143d"
         d="m 179.94644,119.06757 v -6.61459 h 3.87191 c 2.2666,0 4.32342,0.13341 4.96094,0.32177 1.45331,0.42939 3.64516,2.62124 4.07455,4.07455 0.74184,2.51079 0.0443,5.40386 -1.69529,7.03131 -1.6049,1.50145 -2.75565,1.78936 -7.17721,1.79573 l -4.0349,0.006 z"
         id="path11" /><path
         style="fill:#535353"
         d="m 168.75376,125.51377 c -0.0926,-0.0926 -0.17105,-3.06917 -0.17431,-6.61458 l -0.006,-6.44621 h 5.68645 5.68646 v 6.61459 6.61458 h -5.51215 c -3.03169,0 -5.58793,-0.0758 -5.68053,-0.16838 z M -8.8999227,120.06435 c -1.4915883,-0.44971 -2.7119793,-0.89873 -2.7119793,-0.99782 0,-0.20593 5.7793434,-1.99257 5.910411,-1.82716 0.908242,1.14626 0.9333167,1.32558 0.3498294,2.50176 -0.3144341,0.63383 -0.6312297,1.14982 -0.7039901,1.14665 -0.07276,-0.003 -1.3526824,-0.37372 -2.844271,-0.82343 z"
         id="path10" /></g><path
       style="fill:#737171;fill-opacity:1;stroke:#111122;stroke-width:0.0693131;stroke-linecap:round;stroke-linejoin:round"
       d="m 43.403568,47.355591 c -0.796698,0.251944 -1.524455,0.688276 -2.282772,1.035391 -3.095359,1.547451 -6.207534,3.063493 -9.265288,4.684431 -0.18498,0.11267 -0.402261,0.204725 -0.534181,0.378561 0.342329,0.350404 0.849983,0.505277 1.273261,0.741355 0.406692,0 0.813382,0 1.220072,0 0.04134,0.367706 0.01606,0.754707 0.09761,1.111811 0.178286,0.01361 0.03762,-0.287891 0.126882,-0.364096 1.187632,0.549792 2.323348,1.21658 3.527417,1.732187 0.438871,0.09433 0.897168,0.03706 1.343196,0.09815 0.02251,0.344087 -0.02238,0.702307 0.03869,1.039813 0.171481,0.03202 0.06256,-0.254199 0.132348,-0.348606 1.184716,0.569528 2.344813,1.191927 3.522131,1.774007 0.465106,0 0.930211,0 1.395315,0 0.05752,0.240291 -0.124539,0.619645 0.109792,0.764492 1.122921,0.570961 2.261398,1.126128 3.362813,1.728303 0.507022,0.04792 1.017637,0.02142 1.526142,0.02883 0.08704,0.586721 0.05051,1.182266 0.06716,1.774362 -0.07583,0.06789 -0.333269,0.164052 -0.220276,0.294876 -0.160281,0.113608 -0.0045,0.255565 0.129225,0.285297 0.133196,0.112982 0.275634,-0.02187 0.409408,0.08391 0.249924,0.102764 0.514183,0.220387 0.704997,0.399825 0.104505,-0.01852 0.02778,0.199816 0.162,0.128868 0.05549,-0.07316 0.0203,-0.368632 0.03554,-0.275625 0.0065,0.09625 -0.03543,0.352361 0.137279,0.268193 2.728595,-1.252405 5.403338,-2.619323 8.09906,-3.940606 1.285826,-0.637547 2.571572,-1.275258 3.857365,-1.91287 0.0508,-0.502477 -0.02608,-1.038405 -0.02983,-1.55372 0.04964,-0.227694 -0.0695,-0.37568 -0.287458,-0.432437 -2.668405,-1.361643 -5.311482,-2.774568 -8.003382,-4.089212 -0.155663,-0.07044 -0.363199,-0.197697 -0.485266,0.0054 -0.620183,0.53023 -1.256089,1.073029 -1.826913,1.642553 -0.213159,0.09641 -0.462978,0.08356 -0.670597,0.215836 -1.037783,0.48391 -2.111966,0.904435 -3.104326,1.477667 -0.332798,0.03302 -0.608706,0.289176 -0.932984,0.376632 -0.09136,0.02985 -0.199013,0.230352 -0.255029,0.05105 -0.04377,-0.254597 0.292088,-0.381967 0.340636,-0.618858 0.268121,-0.391349 0.50712,-0.799516 0.7838,-1.185414 0.520197,-0.899216 1.138336,-1.742165 1.632971,-2.654696 0.01316,-0.08449 -2.54e-4,-0.176524 0.112737,-0.170768 0.154994,-0.152473 0.211686,-0.3874 0.398571,-0.521161 0.147386,-0.158675 0.344288,-0.280062 0.464836,-0.455791 -0.632237,-0.386992 -1.337181,-0.694744 -1.997238,-1.051453 -1.689788,-0.846262 -3.345148,-1.766705 -5.0678,-2.544376 -0.01562,-0.0045 -0.03199,-0.0042 -0.0479,-0.0021 z m 3.998786,14.344183 c -0.0017,5.07e-4 -0.0091,-0.01249 0,0 z m 2.332058,1.120496 c 0.160371,0.08188 0.706227,0.344817 0.27079,0.146761 -0.209924,-0.09774 -0.439411,-0.126926 -0.608289,-0.296487 -0.147408,-0.07996 -0.1593,0.493992 -0.161598,0.219383 -0.118895,-0.480566 0.238283,-0.193458 0.491973,-0.0732 z m 0.54498,0.271504 c 0.01696,0.05946 -0.04835,-0.04395 0,0 z"
       id="path17" /><path
       style="fill:#737171;fill-opacity:1;stroke:#111122;stroke-width:0.0693131;stroke-linecap:round;stroke-linejoin:round"
       d="m 44.051256,60.01415 c -0.108788,0.267806 -0.02289,0.600926 -0.05301,0.889285 0.07456,0.282345 -0.318076,0.193124 -0.453106,0.351025 0.05482,0.175966 0.324399,0.196826 0.462148,0.306964 0.231925,0.0896 0.458789,0.281365 0.709838,0.285116 0.158742,-0.134156 0.299021,0.123044 0.452119,0.158853 0.180406,0.06948 0.266156,0.285393 0.476387,0.273922 -0.02387,0.20216 0.258898,0.280201 0.349679,0.104326 0.351773,-0.03034 0.69315,-0.216237 0.977668,-0.422033 0.07818,-0.08964 -0.0071,-0.22596 -0.03869,-0.30043 0.07441,0.08168 0.317085,0.14694 0.275357,-0.03554 -0.912749,-0.526642 -1.880165,-0.979919 -2.818475,-1.468919 -0.113852,-0.03817 -0.217442,-0.143615 -0.33992,-0.142566 z"
       id="path18" /><path
       style="fill:#737171;fill-opacity:1;stroke:#111122;stroke-width:0.0693131;stroke-linecap:round;stroke-linejoin:round"
       d="m 39.203837,57.597738 c -0.163651,0.04913 -0.09333,0.309387 -0.13217,0.415764 -0.184132,-0.101738 -0.07577,0.295751 -0.118828,0.429556 0.01272,0.119096 -0.250286,0.102652 -0.117489,0.239715 0.156868,0.12213 0.187121,0.339695 0.39669,0.406183 0.363772,0.203744 0.740345,0.421935 1.156851,0.47182 0.176368,0.05366 0.33289,0.149082 0.440569,0.290399 0.116017,0.09304 0.341397,0.09732 0.32219,-0.06698 0.114187,-0.02907 0.126882,-0.198277 0.24061,-0.100823 0.312426,-0.08121 0.606156,-0.263479 0.847917,-0.47773 -0.01093,-0.176212 -0.308212,-0.21568 -0.439713,-0.322828 -0.856361,-0.430837 -1.700325,-0.896285 -2.575586,-1.284265 l -0.01294,-8.88e-4 z"
       id="path19" /><path
       style="fill:#737171;fill-opacity:1;stroke:#111122;stroke-width:0.0693131;stroke-linecap:round;stroke-linejoin:round"
       d="m 34.050256,55.051486 c -0.01093,0.246406 0.0183,0.549533 -0.02231,0.770366 -0.158296,-0.122643 -0.149438,0.16789 -0.269176,0.203364 -0.158274,0.05567 -0.115303,0.227395 0.04926,0.195131 0.01406,0.186051 0.305468,0.01829 0.313861,0.198791 0.275143,0.0913 0.505284,0.33054 0.782546,0.44612 0.231652,0.09074 0.455018,0.307832 0.708313,0.297741 0.08755,-0.130608 0.270663,0.102273 0.401365,0.12271 0.157425,0.09364 0.218334,-0.141518 0.305068,-0.193458 0.124472,-0.04902 0.242501,-0.27504 0.362661,-0.137904 0.208183,-0.05136 0.416712,-0.15419 0.581427,-0.289504 -0.05805,-0.181209 -0.343673,-0.193212 -0.480508,-0.31198 -0.899506,-0.446945 -1.793792,-0.93157 -2.705197,-1.337197 z"
       id="path20" /><path
       style="fill:#c1baba;fill-opacity:1;stroke:#111122;stroke-width:0.0693131;stroke-linecap:round;stroke-linejoin:round"
       d="m 31.615576,53.773477 c -0.150308,0.127574 -0.06936,0.394392 -0.07728,0.573009 0.03422,0.194328 0.238778,0.05147 0.212668,-0.07773 0.0859,-0.09913 0.194841,-0.109212 0.294879,-0.05024 0.148724,0.03333 0.257664,-0.169206 0.07782,-0.217687 -0.162512,-0.08541 -0.32633,-0.193235 -0.508088,-0.227357 z"
       id="path21" /><path
       style="fill:#c1baba;fill-opacity:1;stroke:#c1baba;stroke-width:0.392094;stroke-linecap:round;stroke-linejoin:round;stroke-opacity:1"
       d="m 49.409177,14.317714 c -3.074536,0.145869 -6.238247,-0.261479 -9.263307,0.359652 -3.376492,2.66315 -6.015275,6.236188 -9.553559,8.68381 -1.036618,0.05549 -1.878315,-1.034541 -2.269349,-1.795724 -1.624638,1.188491 -3.225965,2.633686 -4.343175,4.310752 0.335857,0.691748 1.479227,0.923266 1.695428,1.810923 0.185962,2.096255 -2.312663,3.589048 -1.877786,5.738213 0.006,13.322852 -0.01205,26.649397 0.0091,39.969947 0.937928,1.813923 2.90622,2.835928 4.928215,2.627635 12.28092,0.213248 24.568617,0.07358 36.849615,0.10977 2.082232,-0.930307 3.857906,-3.029754 3.307985,-5.437812 -0.04177,-10.308328 -0.08356,-20.616656 -0.125321,-30.924983 -3.629429,3.015006 -7.383417,6.246183 -10.845264,9.579901 -0.657783,0.554522 0.112492,0.661154 0.508071,0.85202 0.363966,1.070015 0.06296,2.333027 0.348001,3.365528 1.333505,-0.655333 2.975746,-1.686954 4.488046,-1.133157 0.208161,2.390435 0.206309,4.839677 0.41689,7.245205 -4.462716,2.232372 -8.925435,4.464745 -13.388154,6.697116 -1.150127,-0.340995 -2.255521,-1.637223 -3.511921,-1.380351 -0.627466,1.111583 -0.11093,2.563222 -0.291774,3.780393 -2.181973,0.634795 -2.154655,-0.939697 -1.973524,-2.668007 -0.100957,-1.329315 0.581462,-3.158843 -1.293734,-3.405545 -0.445499,-0.152562 -1.633051,-1.018908 -1.589051,-0.02329 -0.114143,1.164154 -0.05687,2.335813 -0.07142,3.50331 -2.142596,0.615631 -2.172915,-0.881424 -1.974028,-2.607728 -0.09351,-1.312303 0.562217,-3.083691 -1.258782,-3.383257 -0.548993,-0.283114 -1.870385,-1.124032 -1.874747,0.06484 -0.14067,1.1914 -0.05453,2.395448 -0.07954,3.591957 -2.263842,0.673609 -2.115801,-1.064669 -1.973524,-2.797178 -0.105196,-1.367061 0.586322,-3.243308 -1.286737,-3.533949 -0.526611,-0.434019 -1.704435,-0.687899 -1.625427,0.349768 -0.08418,1.126886 -0.02287,2.258968 -0.04203,3.387815 -2.298021,0.689213 -2.099318,-1.118297 -1.973522,-2.852898 0.03708,-1.17823 -0.109168,-2.462905 0.442217,-3.492672 0.26579,-1.201623 -0.482513,-2.869829 1.236553,-3.103688 4.167802,-1.944038 8.153036,-4.380092 12.501628,-5.884561 1.468326,-0.01071 2.759301,-1.178842 4.303662,-0.904194 1.224492,-0.144419 0.345157,1.741671 0.649397,2.582398 -0.05381,0.536077 0.209834,1.239681 0.845438,0.819096 1.289154,-0.613129 2.872099,-1.470624 4.211467,-0.599251 5.235912,-4.154385 10.158508,-8.708277 15.190463,-13.097394 -0.101002,-5.72345 0.252006,-11.471855 -0.163115,-17.181211 -0.498236,-2.083404 -2.683929,-3.416043 -4.778644,-3.156355 -4.833504,-0.11209 -9.67026,-0.05031 -14.504754,-0.06684 z m 13.455524,4.210963 c 1.313974,1.26451 0.535912,3.357514 0.712211,4.965216 0.07378,1.228721 -0.428503,2.964869 -1.967951,2.825038 -7.307413,0.235364 -14.637415,0.308772 -21.942287,0.01874 -1.564418,-0.03956 -2.041314,-2.32033 -0.851007,-3.216603 1.529694,-1.635825 2.617895,-3.9089 4.661792,-4.967245 4.636914,-0.586254 9.369246,-0.244603 14.041603,-0.362728 1.569043,0.122576 3.343956,-0.252535 4.785858,0.177416 0.186587,0.18672 0.373188,0.373442 0.559781,0.560166 z"
       id="path22" /><path
       style="fill:#e70808;fill-opacity:1;stroke:#e70808;stroke-width:0.239889;stroke-linecap:round;stroke-linejoin:round;stroke-dasharray:none;stroke-opacity:1"
       d="m 25.620509,17.249633 c -1.9641,2.011147 -4.05529,3.967499 -5.940834,6.012514 0.485561,0.391028 0.78602,1.176947 1.409226,1.347425 1.125681,-0.589537 1.899713,-1.703114 2.844694,-2.536478 1.045899,-1.083859 2.194003,-2.122534 3.169083,-3.239981 -0.412243,-0.586547 -0.90499,-1.193078 -1.482169,-1.58348 z"
       id="path23"
       inkscape:export-filename="icon.svg"
       inkscape:export-xdpi="96"
       inkscape:export-ydpi="96" /></g></svg>
